{"title":"Now You See Me -2 (2016) 720p BDRip x264 AC3 5.1 ESub -DDR","uid":15611726,"size":2140787306,"categoryP":"video","categoryS":"hd___movies","magnet":"?xt=urn:btih:e6654e9825b1aae7ee2534d97af8315ea2c3b762&amp;dn=Now+You+See+Me+-2+%282016%29+720p+BDRip+x264+AC3+5.1+ESub+-DDR&amp;tr=udp%3A%2F%2Ftracker.leechers-paradise.org%3A6969&amp;tr=udp%3A%2F%2Fzer0day.ch%3A1337&amp;tr=udp%3A%2F%2Fopen.demonii.com%3A1337&amp;tr=udp%3A%2F%2Ftracker.coppersurfer.tk%3A6969&amp;tr=udp%3A%2F%2Fexodus.desync.com%3A6969","seeders":16,"leechers":10,"uploader":"SaM","files":3,"time":1471790709,"description":"- HollyWooD Movie-\r\n\r\nNow You See Me\r\n- 2 -\r\n** 2016 **\r\n720p / Blu-ray / x264\r\nEnglish AAC 5.1\r\nEnglish subs\r\n \nhttp://extraimago.com/image/w1EU \nhttp://extraimago.com/image/w1EI \nhttp://extraimago.com/image/w1El \nhttp://extraimago.com/image/w1Ei \nhttp://extraimago.com/image/w1Em \nhttp://extraimago.com/image/w1ER \nhttp://extraimago.com/image/w1EQ \nhttp://extraimago.com/image/w1EL \nhttp://extraimago.com/image/w1Ey \nhttp://extraimago.com/image/w1Eq \nhttp://extraimago.com/image/w1ES \nhttp://extraimago.com/image/w1EE \nhttp://extraimago.com/image/w1E1 \nhttp://extraimago.com/image/w1Ec\r\n\r\nSOURCE: Russian Bluray @ HDC + iTunes (US) - Thank you\r\n\r\nFile size : 1.98 GiB\r\nDuration : 2h 9mn\r\nOverall bit rate : 2 192 Kbps\r\n\r\nVideo\r\nFormat : AVC\r\nFormat/Info : Advanced Video Codec\r\nFormat profile :   \r\nFormat settings, CABAC : Yes\r\nFormat settings, ReFrames : 9 frames\r\nCodec ID : V_MPEG4/ISO/AVC\r\nDuration : 2h 9mn\r\nBit rate : 2 000 Kbps\r\nWidth : 1 280 pixels\r\nHeight : 720 pixels\r\nDisplay aspect ratio : 16:9\r\nFrame rate mode : Constant\r\nFrame rate : 24.000 fps\r\ncolor space : YUV\r\nChroma subsampling : 4:2:0\r\nBit depth : 8 bits\r\nScan type : Progressive\r\nBits/(Pixel*Frame) : 0.090\r\nStream size : 1.81 GiB (91%)\r\n\r\nAudio\r\nFormat : AAC\r\nFormat/Info : Advanced Audio Codec\r\nFormat profile : LC\r\nCodec ID : A_AAC\r\nDuration : 2h 9mn\r\nBit rate : 192 Kbps\r\nChannel(s) : 6 channels\r\nChannel positions : Front: L C R, Side: L R, LFE\r\nSampling rate : 48.0 KHz\r\nFrame rate : 46.875 fps (1024 spf)\r\nCompression mode : Lossy\r\nDelay relative to video : 9ms\r\nStream size : 177 MiB (9%)\r\nLanguage : English\r\nDefault : Yes\r\nForced : No\r\nChapters = Yes\r\nSample : Included","torrent":{"xt":"urn:btih:e6654e9825b1aae7ee2534d97af8315ea2c3b762","amp;dn":"Now+You+See+Me+-2+%282016%29+720p+BDRip+x264+AC3+5.1+ESub+-DDR","amp;tr":["udp%3A%2F%2Ftracker.leechers-paradise.org%3A6969","udp%3A%2F%2Fzer0day.ch%3A1337","udp%3A%2F%2Fopen.demonii.com%3A1337","udp%3A%2F%2Ftracker.coppersurfer.tk%3A6969","udp%3A%2F%2Fexodus.desync.com%3A6969"],"infoHash":"e6654e9825b1aae7ee2534d97af8315ea2c3b762","infoHashBuffer":{"type":"Buffer","data":[230,101,78,152,37,177,170,231,238,37,52,217,122,248,49,94,162,195,183,98]},"announce":[],"urlList":[]}}